<?xml version="1.0" standalone="no"?>
<!DOCTYPE svg PUBLIC "-//W3C//DTD SVG 20010904//EN"
 "http://www.w3.org/TR/2001/REC-SVG-20010904/DTD/svg10.dtd">
<svg version="1.0" xmlns="http://www.w3.org/2000/svg"
 width="896.000000pt" height="1280.000000pt" viewBox="0 0 896.000000 1280.000000"
 preserveAspectRatio="xMidYMid meet">
<metadata>
Created by potrace 1.15, written by Peter Selinger 2001-2017
</metadata>
<g transform="translate(0.000000,1280.000000) scale(0.100000,-0.100000)"
fill="#000000" stroke="none">
<path d="M4782 11344 c-35 -43 -39 -67 -48 -291 -4 -96 -12 -181 -19 -198 -7
-16 -67 -106 -133 -198 -119 -166 -120 -169 -137 -255 -9 -48 -19 -147 -22
-219 -5 -112 -3 -134 9 -138 9 -4 74 17 146 44 72 28 143 51 157 51 14 0 60
17 103 39 42 21 123 58 179 81 136 56 140 61 123 153 -7 39 -21 99 -31 132
-24 78 -113 211 -166 250 -28 20 -46 42 -52 65 -6 19 -15 133 -21 253 -6 120
-15 229 -20 243 -13 34 -34 30 -68 -12z m72 -661 c13 -41 57 -299 54 -317 -2
-13 -19 -25 -58 -38 -80 -27 -80 -25 -54 189 12 98 23 179 23 181 4 10 31 -2
35 -15z"/>
<path d="M5021 10210 c-52 -22 -106 -40 -120 -40 -14 0 -78 -23 -141 -51 -63
-27 -159 -68 -212 -90 -97 -41 -136 -69 -123 -88 11 -18 45 -12 129 23 45 19
97 37 117 40 20 4 135 48 255 100 198 84 219 95 219 117 0 13 -7 25 -15 26 -8
2 -57 -15 -109 -37z"/>
<path d="M4835 10014 c-408 -149 -392 -142 -403 -172 -6 -15 -17 -101 -26
-192 -19 -189 -39 -381 -106 -1015 -71 -663 -112 -1060 -117 -1125 -6 -66 -9
-77 -36 -102 -35 -31 -29 8 -102 -698 -20 -195 -38 -361 -40 -367 -3 -8 -21
-13 -44 -13 -29 0 -43 -5 -50 -18 -9 -17 -30 -179 -47 -360 -6 -71 -8 -73 -40
-87 -23 -9 -34 -21 -34 -34 0 -30 35 -61 70 -61 16 0 152 45 302 101 485 180
592 216 648 223 30 4 86 18 123 32 83 29 90 29 125 4 26 -20 30 -20 72 -5 36
13 50 13 73 4 23 -10 38 -9 83 7 l54 18 25 -24 c13 -14 55 -67 92 -119 62 -86
75 -98 153 -143 94 -54 100 -54 170 -1 64 49 67 58 27 96 -32 29 -232 291
-304 398 l-32 46 -21 304 c-12 167 -31 451 -44 631 -23 334 -27 358 -66 358
-10 0 -22 6 -27 13 -6 6 -18 125 -27 262 -9 138 -25 374 -36 525 -17 241 -44
632 -95 1364 -8 115 -17 218 -21 228 -3 10 -13 18 -22 18 -9 -1 -134 -44 -277
-96z m76 -509 c4 -49 7 -182 8 -295 1 -113 5 -211 10 -219 5 -8 26 -17 47 -20
l39 -6 7 -85 c3 -47 6 -177 7 -290 0 -113 6 -396 11 -630 19 -761 27 -1424 17
-1437 -6 -9 -37 -13 -86 -13 -91 0 -109 -10 -113 -65 l-3 -40 -84 -3 c-46 -2
-88 1 -94 7 -9 9 -51 2221 -45 2376 l3 70 35 3 c66 7 63 -9 55 373 -4 191 -4
352 0 359 4 7 37 10 93 8 l87 -3 6 -90z"/>
<path d="M4819 8777 l-44 -33 2 -255 c1 -140 7 -369 12 -509 6 -140 15 -419
22 -620 14 -485 20 -565 39 -565 8 0 28 22 45 49 27 44 30 58 30 130 0 279
-28 1776 -34 1800 -10 41 -22 42 -72 3z"/>
<path d="M5264 6016 c-23 -13 -120 -43 -215 -66 -781 -189 -799 -194 -799
-211 0 -18 46 -26 324 -63 154 -20 284 -40 288 -44 8 -8 27 -1320 20 -1354 -3
-13 -20 -18 -85 -22 -124 -9 -621 -35 -804 -43 l-163 -6 0 23 c0 12 61 338
135 723 74 385 135 711 135 724 0 35 -18 36 -116 13 -110 -26 -126 -37 -147
-92 -16 -44 -259 -755 -394 -1155 -41 -121 -80 -229 -87 -238 -7 -11 -92 -36
-245 -75 -153 -38 -240 -65 -252 -77 -28 -28 -1420 -2575 -1415 -2588 9 -25
197 -33 249 -11 18 7 116 65 217 129 153 96 190 123 211 159 15 24 237 405
494 848 257 443 477 815 489 826 28 28 176 78 190 64 7 -7 -32 -138 -128 -418
-380 -1121 -477 -1405 -506 -1489 -17 -50 -30 -102 -28 -115 3 -22 8 -23 93
-26 129 -4 130 -3 172 83 31 65 39 75 62 76 14 0 71 4 127 8 l101 7 369 261
c203 143 385 270 405 282 19 11 364 125 765 252 401 127 739 237 752 245 12 8
22 19 22 25 0 14 -388 678 -410 702 -21 22 42 37 -690 -162 -385 -105 -602
-169 -614 -181 -10 -9 -161 -294 -335 -631 l-317 -614 -54 -22 c-30 -12 -59
-18 -64 -13 -4 4 143 340 330 749 287 626 343 742 364 750 14 6 198 49 410 96
212 48 534 121 715 162 182 41 343 75 359 76 26 2 33 -5 66 -63 20 -36 254
-490 520 -1010 558 -1093 557 -1091 578 -1107 11 -9 61 -13 168 -13 125 0 155
3 168 16 19 18 25 1 -102 274 -426 915 -714 1539 -719 1560 -6 24 -5 24 13 9
10 -9 410 -364 887 -789 478 -425 879 -782 893 -792 23 -18 31 -19 122 -9 219
24 278 32 295 37 33 10 17 40 -46 86 -53 38 -133 133 -498 590 -239 300 -623
782 -854 1072 -231 290 -432 544 -447 564 -23 30 -38 80 -77 258 -95 426 -360
1457 -378 1475 -11 10 -63 26 -128 39 -60 11 -117 23 -126 26 -9 2 -43 39 -75
82 -77 100 -124 152 -138 152 -6 0 -30 -11 -52 -24z m53 -253 c183 -429 590
-1420 585 -1425 -12 -12 -344 -50 -354 -40 -5 5 -40 191 -78 413 -37 222 -94
551 -124 730 -31 179 -56 334 -56 343 0 26 10 19 27 -21z m613 -1562 c15 -29
100 -271 100 -286 0 -16 -16 -18 -465 -55 -198 -17 -463 -39 -590 -50 -126
-11 -309 -27 -405 -35 -96 -8 -357 -30 -580 -49 -223 -19 -540 -46 -705 -60
-165 -14 -320 -27 -346 -30 -63 -6 -75 3 -54 43 9 18 26 36 38 41 12 6 90 21
172 34 168 28 2414 405 2625 441 175 29 197 30 210 6z"/>
<path d="M4835 2036 c-743 -351 -725 -342 -725 -358 0 -16 60 -8 610 83 270
44 498 78 506 75 8 -3 72 -95 143 -203 155 -238 166 -253 194 -253 40 0 252
69 264 86 9 12 9 25 -2 57 -28 91 -274 787 -285 806 -6 12 -18 21 -28 20 -9 0
-314 -141 -677 -313z"/>
</g>
</svg>
